<svg width="5982" height="1803" viewBox="0 0 5982 1803" fill="none" xmlns="http://www.w3.org/2000/svg">
<path fill-rule="evenodd" clip-rule="evenodd" d="M4165.84 603.524C4098.34 612.733 4043.74 643.984 4011.26 692C3987.49 727.156 3977.06 763.663 3975.42 817.5C3975.13 826.85 3974.66 836.026 3974.38 837.891L3973.86 841.282L3958.68 840.598C3932.76 839.432 3922.02 842.711 3909.04 855.75C3896.49 868.356 3892.16 880.362 3893.28 899.398C3894.57 921.4 3904.74 937.049 3923.59 946.045C3935.06 951.519 3942.18 953.048 3959.26 953.705L3974.03 954.273L3974.76 956.886C3975.58 959.803 3975.78 1297.7 3975 1358C3974.45 1400.58 3974.58 1401.92 3980.6 1414.65C3987.52 1429.3 4007.42 1443.9 4027.41 1448.99C4044.99 1453.46 4058.48 1450.25 4078.12 1436.92C4093.46 1426.5 4102.9 1411.25 4106.08 1391.74C4107.8 1381.19 4108.44 1209.63 4107.08 1123C4106.47 1084.22 4105.69 1034.5 4105.34 1012.5C4104.99 990.5 4105.04 968.075 4105.45 962.668L4106.2 952.835L4182.85 953.095C4242.44 953.297 4260.5 953.072 4264 952.085C4278.82 947.901 4295.28 934.011 4302.34 919.729C4307.54 909.199 4309.65 897.308 4307.95 888.084C4305.28 873.646 4300.26 863.966 4290.7 854.875C4277.81 842.603 4271.25 841.074 4227 840.025C4209.67 839.614 4178.63 839.196 4158.02 839.096C4122.79 838.926 4106.67 837.988 4104.61 835.988C4104.12 835.511 4103.98 827.195 4104.29 817.314C4104.75 802.538 4105.29 797.818 4107.44 789.638C4113.88 765.233 4126.45 747.338 4145.53 735.446C4174.36 717.481 4212.91 714.508 4253.5 727.119C4262.98 730.064 4271.7 733.833 4285.69 741.035C4315.61 756.428 4320.18 757.061 4338.08 748.29C4349.98 742.459 4357.08 736.625 4362.91 727.895C4371.82 714.549 4375.21 694.001 4371.1 678.163C4363.6 649.211 4345.99 634.774 4299 619.051C4274.6 610.887 4246.57 605.02 4222.4 603.017C4206.14 601.671 4177.55 601.927 4165.84 603.524ZM1060.48 613.978C1047.98 615.839 1037.99 620.533 1026.18 630.094C1017.73 636.927 1010.64 648.131 1006 661.979C1001.78 674.561 1001.56 682.061 1002.85 773C1003.52 821.26 1004.04 953.451 1004.03 1076.5C1004.02 1213.7 1004.39 1300.62 1005.03 1311C1007.84 1356.34 1019.15 1386.05 1042.84 1410.33C1052.9 1420.64 1063.87 1428.42 1078.39 1435.57C1096.72 1444.59 1109.51 1447.73 1133.5 1449.1C1154.07 1450.28 1215.7 1449.43 1223.82 1447.86C1234.64 1445.76 1248.48 1437.75 1256.41 1428.97C1264.68 1419.81 1269.94 1402.86 1268.66 1389.5C1266.17 1363.58 1251.23 1339.98 1231.35 1330.56C1219.91 1325.14 1196.79 1322.86 1173 1324.81C1158.34 1326.02 1152.23 1325.19 1146.5 1321.23C1144.3 1319.71 1141.6 1316.67 1140.5 1314.48C1138.55 1310.6 1138.49 1307.96 1137.97 1204C1137.68 1145.43 1137.34 1005.23 1137.22 892.449C1137.08 771.872 1136.6 683.27 1136.04 677.38C1133.81 654.008 1125 638.166 1107.53 626.084C1103.35 623.195 1097.36 619.793 1094.21 618.524C1084.42 614.572 1069.76 612.596 1060.48 613.978ZM359.251 616.486C342.973 621.052 323.711 636.683 316.629 651.074C309.479 665.601 309.126 672.486 310.953 761.87C311.477 787.516 312.162 884.1 312.474 976.5C312.786 1068.9 313.467 1151.03 313.987 1159C315.816 1187.08 321.647 1219.26 329.17 1242.79C335.942 1263.97 349.911 1293.79 362.062 1313C397.918 1369.68 443.087 1408.76 501.964 1434.02C570.892 1463.59 641.246 1468.93 712.5 1450.02C771.294 1434.4 832.485 1392.55 871.145 1341.5C907.27 1293.8 926.995 1246.69 936.049 1186.5C943.253 1138.61 939.07 1093.02 922.918 1043.37C914.441 1017.31 905.289 998.593 888.726 973.436C874.748 952.206 867.689 943.593 848.551 924.416C827.909 903.731 817.159 895.317 790.626 879.077C765.413 863.645 733.895 850.519 704 843C684.883 838.192 675.708 836.531 656.532 834.408C635.805 832.113 596.939 832.875 579.093 835.927C548.081 841.231 523.096 848.989 493.603 862.473C482.664 867.474 473.743 872.802 458 883.734L444.5 893.108L443.924 786.804L443.89 780.462C443.396 689.194 443.337 678.263 440.466 668.13C440.075 666.751 439.632 665.386 439.129 663.837C439.045 663.577 438.959 663.311 438.871 663.04C432.319 642.796 413.902 624.236 394.015 617.84C385.44 615.081 366.841 614.357 359.251 616.486ZM5722.5 616.698C5708.46 618.56 5688.31 629.337 5677.17 640.943C5667.17 651.357 5660.59 662.823 5656.47 677C5653.97 685.626 5653.89 704.043 5656.31 712.17C5664.81 740.596 5686.31 762.045 5714.49 770.208C5741.19 777.941 5766.03 773.206 5786.25 756.526C5809.3 737.51 5820.46 703.079 5812.49 675.574C5805.95 652.975 5791.92 636.26 5770.5 625.538C5756.08 618.317 5736.91 614.787 5722.5 616.698ZM2232 833.496C2162.97 841.902 2100.3 871.785 2050.62 919.979C2038.39 931.842 2024.15 948.096 2012.88 963.034C2000.97 978.819 1982.29 1013.35 1975.55 1032.04C1965.01 1061.27 1957.99 1105.56 1958 1142.8C1958.01 1171 1961.3 1197.14 1968.34 1225.07C1973.94 1247.26 1977.9 1257.74 1990.05 1282.5C2007.79 1318.65 2018.23 1333.28 2046.46 1361.58C2073.32 1388.51 2080.63 1394.22 2109 1410.55C2149.02 1433.57 2185.66 1445.66 2235 1452.13C2249.14 1453.99 2290.46 1453.73 2307.33 1451.68C2346.44 1446.94 2385.33 1433.1 2419.54 1411.76C2431.56 1404.27 2434.7 1402.07 2442.3 1395.79C2445.49 1393.16 2448.53 1391 2449.05 1391C2451.47 1391 2448.46 1423.93 2443.97 1446.5C2440.58 1463.54 2434.94 1483.12 2430.91 1491.84C2422.7 1509.58 2405.73 1531.53 2391.08 1543.36C2375.68 1555.81 2353.27 1568.13 2334.5 1574.47C2301.83 1585.51 2263.77 1586.84 2223.5 1578.36C2192.04 1571.73 2164.09 1556.1 2138.91 1531.03C2124.8 1516.98 2116.96 1506.33 2102.56 1481.64C2096.38 1471.05 2090.94 1465.15 2081.62 1458.91C2072.08 1452.53 2067.19 1451.49 2047 1451.56C2027.05 1451.63 2024.67 1452.2 2014.62 1459.38C2006.61 1465.1 2001.15 1471.1 1996.74 1479.06C1983.53 1502.91 1985.52 1532.08 2002.69 1566.37C2013.24 1587.44 2023.44 1602.03 2040.35 1620.3C2058.42 1639.8 2069.83 1649.03 2100.5 1668.94C2117.26 1679.82 2157.83 1696.17 2186.1 1703.44C2220.09 1712.18 2241.27 1714.55 2277.9 1713.69C2302.77 1713.11 2316.19 1711.66 2339.73 1706.99C2361.43 1702.69 2395.69 1691.18 2414 1682.04C2485.92 1646.13 2534.91 1593.3 2562.47 1521.93C2575.91 1487.14 2580.72 1455.81 2583.04 1388C2584.32 1350.46 2584.33 1006.33 2583.05 938C2582.04 884.088 2581.71 881.223 2575.19 868.5C2570.14 858.65 2556.91 845.441 2547.75 841.096C2530.1 832.729 2508.36 832.98 2489 841.775C2470.08 850.368 2457.02 867.856 2451.32 892.214C2448.86 902.717 2448.64 903.185 2447.11 901.298C2438.51 890.68 2392.27 862.593 2362.27 849.762C2354 846.223 2325.76 838.403 2314.5 836.532C2286.01 831.799 2255.23 830.667 2232 833.496ZM5267.5 833.47C5247.91 835.357 5225.84 839.209 5206.77 844.073C5161.03 855.735 5093.75 882.17 5069.5 898.008C5058.67 905.079 5046.38 917.754 5042.29 926.07C5033.72 943.465 5033.96 957.184 5043.12 975.366C5051.07 991.121 5058.73 998.867 5073.5 1006.08C5083.01 1010.73 5090.9 1012.38 5100.69 1011.76C5109.09 1011.23 5116.25 1008.1 5139.83 994.643C5188.49 966.872 5221.54 953.061 5254.91 946.555C5305.15 936.758 5350.68 939.815 5381 955.019C5407.76 968.441 5428.81 992.349 5437.52 1019.23C5442.08 1033.3 5442.06 1034.56 5437.25 1035.36C5435.19 1035.7 5423.75 1035.98 5411.83 1035.99C5388.86 1036 5353.06 1037.35 5331.5 1039.03C5281.41 1042.91 5267.68 1044.54 5234.5 1050.56C5168.09 1062.62 5108.89 1087.2 5068.5 1119.5C5051.66 1132.97 5037.4 1148.67 5027.88 1164.24C5007.82 1197.04 4998.89 1230.72 4998.65 1274.5C4998.5 1301.65 5000.67 1314.02 5009.33 1335.57C5021.78 1366.56 5034.42 1384.88 5057.21 1405.03C5087.21 1431.53 5130.78 1449.98 5183.88 1458.68C5199.12 1461.17 5202.87 1461.4 5229 1461.45C5258.08 1461.5 5268.22 1460.75 5291 1456.85C5340.98 1448.3 5392.46 1424.47 5430.83 1392.13C5445.31 1379.92 5445.91 1379.5 5446.95 1380.6C5447.43 1381.09 5448.58 1385.33 5449.52 1390C5451.66 1400.66 5453.15 1404.55 5458.87 1414.3C5469.94 1433.19 5492.68 1449.19 5512.46 1451.99C5522.96 1453.49 5534.84 1452.14 5542.63 1448.57C5557.46 1441.78 5574.23 1425.47 5581.86 1410.42C5590.16 1394.03 5588.11 1382.76 5573.5 1364.51C5570.42 1360.66 5566.46 1355.27 5564.7 1352.53C5561.52 1347.58 5561.5 1347.48 5561.52 1334.53C5561.53 1327.36 5562.14 1295.85 5562.89 1264.5C5564.36 1202.75 5563.84 1076.84 5562.01 1051.5C5558.28 999.774 5545.02 961.167 5518.83 925.847C5494.58 893.143 5453.54 864.552 5408.42 848.915C5393.51 843.749 5365.08 837.098 5348.5 834.898C5328.08 832.188 5288.13 831.483 5267.5 833.47ZM2920.28 834.539C2875.89 840.248 2823.91 859.002 2790.04 881.523C2767.57 896.464 2756.75 905.284 2738.88 923.19C2718.71 943.418 2704 963.479 2687.43 993.362C2672.53 1020.25 2664.36 1042.02 2657.16 1074C2648.05 1114.53 2646.96 1148.82 2653.46 1190.21C2658.33 1221.2 2663.2 1238.87 2674.77 1267.5C2685.63 1294.36 2691.35 1305.54 2704.68 1325.9C2723.19 1354.16 2738.35 1370.61 2767 1393.5C2798.18 1418.42 2839.56 1439.42 2876.51 1449.09C2909.73 1457.78 2933.42 1460.95 2965.29 1460.98C3015.95 1461.03 3060.36 1451.1 3102.5 1430.31C3119.94 1421.71 3125.72 1418.43 3136 1411.3C3166.92 1389.86 3179.93 1378.86 3194.43 1361.9C3221.89 1329.79 3235.41 1298.71 3231.04 1277.71C3227.12 1258.83 3208.83 1238.21 3188.43 1229.67C3185.09 1228.27 3178.41 1226.57 3173.58 1225.9C3165.95 1224.83 3163.6 1224.9 3155.55 1226.41C3140.02 1229.34 3130.98 1236.13 3109.54 1261C3101.71 1270.08 3091.91 1280.72 3087.75 1284.65C3069.83 1301.62 3041.63 1317.79 3018.42 1324.41C2999.79 1329.72 2985.16 1331.37 2962.5 1330.71C2933.23 1329.85 2913.66 1325.79 2891.89 1316.04C2862.84 1303.04 2841.02 1285.85 2822.19 1261.14C2810.81 1246.2 2808.62 1242.66 2803.24 1230.51C2789.06 1198.54 2784.41 1177.02 2784.65 1144.5C2784.77 1128.28 2785.18 1123.62 2787.42 1112.65C2792.84 1086.19 2801.45 1065.07 2815.28 1044.34C2830.12 1022.09 2842.69 1009.05 2862.91 994.907C2894.54 972.789 2925.26 963.448 2966 963.567C2996.44 963.655 3020.08 969.271 3049 983.283C3069.86 993.392 3085.1 1006.18 3106.45 1031.5C3123.27 1051.45 3133.31 1060.41 3142.94 1064.07C3150.66 1067 3162.77 1068.35 3170.63 1067.14C3179.14 1065.83 3194.91 1058.22 3203.5 1051.29C3220.7 1037.4 3232.1 1009.75 3228.88 989.766C3224.19 960.633 3187.69 920.263 3134.6 885.503C3102.88 864.735 3072.04 851.575 3032.73 842.036C3014.24 837.55 3008.05 836.476 2989.05 834.46C2972.32 832.684 2934.36 832.728 2920.28 834.539ZM3564.5 836.029C3537.68 838.415 3495.87 845.995 3471.49 852.89C3441.47 861.384 3411.37 872.765 3386.5 885.025C3357.06 899.534 3342.66 912.098 3335.95 929.124C3331.61 940.129 3334.44 963.479 3341.59 975.724C3346.04 983.353 3356.07 994.94 3361.72 998.986C3364.77 1001.17 3370.92 1004.4 3375.38 1006.17C3382.41 1008.96 3384.71 1009.39 3392.5 1009.39C3403.81 1009.39 3409.86 1007.11 3436 992.944C3493.79 961.632 3521.53 951.391 3567.5 944.391C3583.58 941.943 3620.27 941.387 3633 943.399C3656.81 947.162 3674.2 953.195 3692.42 964.015C3716.93 978.569 3736.19 1004.26 3737.72 1024.45C3738.2 1030.88 3738.05 1031.78 3736.38 1032.51C3735.35 1032.96 3719.87 1033.67 3702 1034.08C3670.27 1034.81 3659.68 1035.47 3630 1038.57C3581.92 1043.58 3516.08 1054.99 3488.5 1063.09C3445.97 1075.58 3417.57 1087.82 3394.01 1103.83C3350.94 1133.1 3322.05 1168.06 3308.86 1206.87C3302.33 1226.09 3297.98 1264.3 3299.94 1285.34C3303.93 1328.2 3320.78 1364.83 3349.95 1394.09C3363.74 1407.93 3368.78 1412.21 3380 1419.65C3412.37 1441.1 3447.7 1453.61 3494.5 1460.2C3506.09 1461.83 3546.07 1461.79 3560.5 1460.13C3596.28 1456.01 3629.14 1448.02 3657.5 1436.55C3681.14 1426.98 3723.58 1401.19 3739.26 1386.86C3742.97 1383.46 3746.27 1380.94 3746.58 1381.25C3746.89 1381.56 3747.83 1385.12 3748.66 1389.16C3754.96 1419.61 3771.23 1440.29 3795.5 1448.69C3802.48 1451.1 3804.97 1451.45 3815 1451.42C3827.8 1451.38 3834.45 1450.1 3843.85 1445.89C3858.37 1439.37 3870.97 1427.47 3877.97 1413.68C3886.69 1396.47 3884.18 1380.24 3869.61 1359.65C3863.91 1351.6 3862.39 1348.44 3861.62 1343C3861.27 1340.53 3860.77 1277.53 3860.51 1203C3859.96 1041.7 3859.73 1033.13 3855.38 1009C3853.8 1000.22 3848.11 979.922 3845.36 973.28C3839.98 960.279 3828.8 941.362 3819.49 929.5C3805.48 911.669 3777.6 887.48 3757.12 875.402C3725.69 856.864 3690.2 845.411 3640.99 837.927C3625.54 835.576 3581.79 834.491 3564.5 836.029ZM4613 837.663C4582.73 840.63 4565.44 844.218 4538.25 853.178C4487.96 869.748 4449.06 895.864 4410.64 938.849C4393.21 958.35 4377.94 980.953 4366.02 1004.88C4347.4 1042.25 4338.64 1074.78 4333.93 1124C4330.57 1159.06 4338.54 1212.08 4353.23 1252.48C4358.01 1265.61 4372.14 1295.21 4380.85 1310.33C4402.52 1347.93 4439.84 1386.41 4479 1411.52C4488.01 1417.3 4513.2 1430.46 4525 1435.55C4540.8 1442.37 4562.34 1449.28 4579 1452.86C4601.46 1457.68 4640.09 1462.17 4653 1461.46C4656.58 1461.26 4665.12 1460.85 4672 1460.56C4690.31 1459.76 4710.98 1456.29 4735.5 1449.9C4756.82 1444.34 4795.3 1426.4 4812.94 1413.81C4847.52 1389.11 4869.86 1365.47 4885.88 1336.65C4889.73 1329.72 4893 1317.72 4892.99 1310.59C4892.98 1303.17 4889.27 1296.1 4880.85 1287.41C4868.77 1274.96 4849.53 1263.47 4832.54 1258.58C4827.62 1257.16 4821.86 1256 4819.76 1256C4812.47 1256 4806.26 1261.62 4793.22 1280C4780 1298.63 4774.68 1304.85 4762.51 1315.86C4740.27 1336 4703.52 1351.11 4669.5 1354.09C4636.7 1356.97 4589.07 1348.57 4563.45 1335.39C4522.17 1314.15 4483.66 1269.2 4468.97 1225.12C4465.2 1213.79 4461.21 1196.46 4462.16 1195.51C4462.42 1195.25 4560.03 1194.98 4679.07 1194.91C4695.19 1194.9 4710.13 1194.9 4723.99 1194.89C4891.84 1194.82 4900.63 1194.82 4906.38 1190.64C4906.7 1190.41 4907.01 1190.17 4907.33 1189.91C4907.82 1189.53 4908.35 1189.11 4909 1188.67C4924.29 1178.19 4931.08 1165.66 4935.61 1139.62C4938.4 1123.53 4937.59 1093.36 4933.88 1075.5C4930.04 1057.01 4923.36 1035.15 4916.32 1018C4910.91 1004.85 4898.37 980.891 4891.37 970.349C4877.85 949.976 4853.76 923.43 4834.58 907.75C4821.91 897.401 4795.51 879.715 4782.5 872.863C4766.65 864.516 4731.03 850.93 4714.5 846.928C4684.77 839.729 4636.7 835.341 4613 837.663ZM5718.4 846.408C5715.59 847.089 5710.64 848.705 5707.4 849.999C5690.59 856.704 5675.25 873.803 5671.6 889.899C5668.11 905.256 5667.83 916.665 5668.95 996.004C5669.55 1038.38 5670.02 1143.35 5670.01 1229.27C5669.98 1333.48 5670.32 1387.61 5671.02 1391.82C5673.51 1406.86 5684.58 1425.75 5695.47 1433.51C5713.09 1446.09 5736.77 1451.94 5752.5 1447.6C5774.73 1441.46 5791.65 1424.67 5798.43 1402C5802.03 1389.99 5802.19 1374.43 5801.19 1136.5C5801.13 1122.1 5801.07 1108.57 5801.02 1095.86C5800.25 909.058 5800.21 898.3 5796.22 889.286C5795.71 888.12 5795.12 886.984 5794.47 885.5C5785.77 865.865 5766.62 850.227 5746.66 846.474C5737.34 844.721 5725.46 844.694 5718.4 846.408ZM4601.61 946.562C4553.35 954.938 4512.34 982.976 4485.31 1026.07C4478.42 1037.07 4469.42 1055.94 4466.04 1066.5C4462.17 1078.62 4458.67 1093.01 4459.42 1093.76C4460.08 1094.41 4543.03 1094.1 4544.1 1093.44C4545.41 1092.63 4715.74 1092.66 4763.07 1093.48C4798.46 1094.09 4809.16 1093.99 4810.94 1093.03C4813.12 1091.86 4813.2 1091.43 4812.54 1084.65C4809.11 1049.5 4783.6 1007.18 4750.85 982.297C4730.97 967.195 4702.96 953.798 4680 948.419C4657.99 943.261 4625.12 942.483 4601.61 946.562ZM2265 960.69C2253.02 961.685 2232.6 964.393 2227.5 965.663C2200.99 972.265 2169.47 988.643 2151.72 1005.03C2136.82 1018.8 2119.99 1042.13 2110.63 1062C2088.64 1108.7 2086.42 1164.06 2104.6 1212.72C2111.7 1231.75 2118.17 1242.93 2131.83 1259.83C2155.59 1289.21 2185.46 1309.01 2221.76 1319.42C2240.06 1324.67 2254.51 1326.33 2276.73 1325.75C2313.84 1324.77 2340.85 1316.18 2372.07 1295.43C2387.6 1285.11 2406.26 1266.21 2416.92 1250C2438.92 1216.56 2450 1181.46 2450 1145.23C2450 1099.72 2433.98 1055.4 2406.62 1025.17C2378.78 994.415 2345.08 973.326 2310.5 965.025C2297.96 962.014 2275.19 959.844 2265 960.69ZM605.708 965.451C582.442 968.42 566.076 973.291 543.954 983.83C494.861 1007.22 456.302 1062.24 447.932 1120.85C446.4 1131.58 447.26 1162.18 449.452 1174.95C453.988 1201.39 465.399 1228.34 483.338 1255C492.106 1268.03 512.448 1288.67 526 1298.29C536.478 1305.72 559.311 1317.4 571.033 1321.32C597.055 1330.03 638.106 1332.44 661.504 1326.63C689.897 1319.59 711.745 1309.5 730 1295.02C757.353 1273.31 775.031 1251.86 788.045 1224.57C813.441 1171.31 813.072 1114.47 786.987 1061.5C772.661 1032.41 753.472 1010.65 726.967 993.435C706.666 980.251 688.192 972.71 663.155 967.389C648.367 964.246 622.095 963.36 605.708 965.451ZM3695 1130.11C3634.4 1132.29 3571.76 1140.62 3537 1151.12C3533.42 1152.21 3528.7 1153.61 3526.5 1154.24C3524.3 1154.88 3516.63 1157.73 3509.46 1160.58C3466.55 1177.65 3440.93 1199.12 3429.2 1227.88C3423.59 1241.65 3421.71 1253.03 3422.32 1269.5C3423.22 1293.78 3429 1307.91 3444.27 1323.12C3460.61 1339.4 3482.01 1350.53 3504.58 1354.48C3543.67 1361.32 3582.48 1356.27 3627.54 1338.46C3645.61 1331.32 3661.45 1321.86 3683.3 1305.17C3695.25 1296.04 3704.92 1285.85 3714.64 1272.13C3736.21 1241.7 3740.16 1227.04 3742.03 1170.5C3743.1 1138.14 3742.47 1130.63 3738.64 1129.6C3736.06 1128.91 3724.93 1129.04 3695 1130.11ZM5413 1129.67C5378.18 1130.42 5326.91 1134.68 5295.3 1139.46C5249.24 1146.42 5205.25 1160.78 5175.44 1178.56C5143.65 1197.53 5125.43 1222.03 5120.47 1252.5C5115.19 1284.99 5123.57 1308.87 5147.18 1328.62C5157.44 1337.19 5165.55 1342.21 5175.77 1346.3C5214.79 1361.92 5272.73 1359.98 5320.65 1341.46C5343.94 1332.46 5370.32 1316.78 5390 1300.23C5413.59 1280.39 5433.34 1252.01 5438.91 1229.95C5441.24 1220.71 5442.71 1205.94 5443.53 1183.5C5444.24 1164.17 5442.68 1132.53 5440.92 1130.4C5440.08 1129.39 5437.65 1129.06 5432.13 1129.21C5427.93 1129.33 5419.32 1129.54 5413 1129.67Z" fill="url(#paint0_linear_4283_8870)"/>
<path d="M1632.84 285.636C1641.64 271.983 1653.1 262.243 1664.09 259.068C1670.48 257.22 1685.02 257.877 1689.55 260.218C1694.8 262.929 1704.39 273.382 1707.14 279.405C1710.66 287.084 1709.87 292.393 1703.42 304.636C1683.83 341.788 1682.05 347.1 1682.08 368.636C1682.1 381.227 1682.45 384.449 1684.8 393.106C1689.32 409.797 1698.6 426.425 1717.47 451.656C1735.02 475.12 1742.12 486.899 1747.79 501.959C1756.59 525.351 1752.75 564.779 1738.4 598.223C1732.97 610.858 1718.29 638.934 1708.54 655.324C1700.66 668.562 1695.96 677.971 1691.65 689.109C1685.66 704.572 1686.09 720.215 1693.08 741.636C1697.61 755.491 1698.34 763.698 1695.61 769.875C1690.96 780.391 1678.14 789.874 1666.02 791.76C1660.05 792.69 1659.04 792.561 1652.72 790.043C1636.57 783.605 1630.7 777.043 1622.4 756.155C1612.21 730.501 1610.08 706.836 1615.91 683.865C1619.58 669.399 1621.31 665.93 1642.15 631.148C1652.37 614.104 1662.2 596.926 1664 592.973C1673.14 572.902 1677.32 552.223 1675.41 536.419C1673.57 521.16 1667.36 506.531 1653.87 485.636C1636.32 458.479 1628.87 444.981 1622.38 428.636C1602.52 378.641 1606.32 326.74 1632.84 285.636Z" fill="url(#paint1_linear_4283_8870)"/>
<path d="M1476.89 441.638C1480.28 431.439 1494.24 420.723 1506.62 418.812C1513.66 417.727 1519.07 419.38 1527.63 425.229C1536.12 431.028 1543.73 439.326 1551.86 451.636C1562.36 467.54 1566.63 476.887 1571.02 493.614C1579.04 524.211 1579.47 552.346 1572.38 582.519C1567.63 602.675 1560.21 620.583 1544.13 650.652C1532.12 673.095 1528.21 682.626 1525.87 695.086C1523.01 710.334 1525.08 719.349 1536.78 742.679C1546.02 761.113 1547.33 765.848 1544.74 771.318C1541.85 777.41 1534.08 784.2 1524.69 788.837C1516.21 793.025 1515.75 793.132 1506.82 792.972C1499.59 792.843 1496.72 792.342 1493.27 790.608C1480.45 784.166 1471.77 772.222 1462.03 747.636C1451.93 722.16 1449.62 702.52 1454.37 682.736C1458.1 667.212 1460.68 661.795 1481.68 625.421C1500.03 593.649 1504.29 582.952 1507.55 560.5C1509.47 547.253 1509.5 545.917 1508.04 537.29C1506.21 526.446 1500.7 513.109 1491.19 496.529C1482.86 482.001 1479.1 474.444 1476.98 467.974C1474.65 460.866 1474.61 448.504 1476.89 441.638Z" fill="url(#paint2_linear_4283_8870)"/>
<path fill-rule="evenodd" clip-rule="evenodd" d="M1887 937.649V984.274V1032.51V1137.85L1885.71 1186.11V1186.21C1879.62 1260.71 1844.94 1329.96 1788.93 1379.46C1732.93 1428.96 1659.95 1454.87 1585.27 1451.75C1510.6 1448.63 1440.03 1416.73 1388.35 1362.74C1336.66 1308.75 1307.87 1236.84 1308 1162.09V937.649C1308 862.406 1458.14 828 1597.34 828C1736.87 828 1887 862.406 1887 937.649ZM1838.78 937.649C1838.78 919.32 1756.8 876.233 1597.34 876.233C1438.2 876.233 1356.22 919.32 1356.22 937.649C1356.22 955.977 1438.2 998.744 1597.34 998.744C1756.8 998.744 1838.78 955.977 1838.78 937.649Z" fill="url(#paint3_linear_4283_8870)"/>
<defs>
<linearGradient id="paint0_linear_4283_8870" x1="310.02" y1="1158" x2="5815.05" y2="1158" gradientUnits="userSpaceOnUse">
<stop stop-color="#7370D5"/>
<stop offset="1" stop-color="#2D2C66"/>
</linearGradient>
<linearGradient id="paint1_linear_4283_8870" x1="1452" y1="525.507" x2="1752.48" y2="525.507" gradientUnits="userSpaceOnUse">
<stop stop-color="#7370D5"/>
<stop offset="1" stop-color="#2D2C66"/>
</linearGradient>
<linearGradient id="paint2_linear_4283_8870" x1="1452" y1="525.507" x2="1752.48" y2="525.507" gradientUnits="userSpaceOnUse">
<stop stop-color="#7370D5"/>
<stop offset="1" stop-color="#2D2C66"/>
</linearGradient>
<linearGradient id="paint3_linear_4283_8870" x1="1308" y1="1140" x2="1887" y2="1140" gradientUnits="userSpaceOnUse">
<stop stop-color="#7370D5"/>
<stop offset="1" stop-color="#2D2C66"/>
</linearGradient>
</defs>
</svg>
